<svg t="1619076216974" class="icon" viewBox="0 0 1024 1024" version="1.1" xmlns="http://www.w3.org/2000/svg" p-id="2697" data-spm-anchor-id="a313x.7781069.0.i10" width="200" height="200"><path d="M588.701 499.548l207.63-207.63c23.394-23.394 23.394-58.495 0-81.884s-58.495-23.394-81.884 0l-207.63 207.63-207.63-207.63c-23.394-23.394-58.495-23.394-81.884 0s-23.394 58.495 0 81.884l207.63 207.63-207.63 207.63c-23.394 23.394-23.394 58.495 0 81.884 11.705 11.705 26.326 17.55 40.947 17.55s29.238-5.847 40.947-17.55l207.63-207.63 207.63 207.63c11.705 11.705 26.326 17.55 40.947 17.55s29.238-5.847 40.947-17.55c23.394-23.394 23.394-58.495 0-81.884l-207.63-207.63z" p-id="2698" data-spm-anchor-id="a313x.7781069.0.i8" class="" fill="#91d5ff"></path></svg>