<svg t="1618374094177" class="icon" viewBox="0 0 1024 1024" version="1.1" xmlns="http://www.w3.org/2000/svg" p-id="875" width="200" height="200"><path d="M809.6 864h-576a64 64 0 1 0 0 128h576a64 64 0 0 0 0-128z m-608-381.44A103.36 103.36 0 0 0 342.08 448a705.92 705.92 0 0 1 49.6-67.84L416 678.4a96 96 0 0 0 193.92 0l23.36-300.16A564.8 564.8 0 0 1 681.92 448a103.36 103.36 0 1 0 177.28-106.56 953.6 953.6 0 0 0-294.08-294.08 103.36 103.36 0 0 0-106.24 0 953.6 953.6 0 0 0-294.08 294.08 103.36 103.36 0 0 0 35.52 141.12z" fill="#91d5ff" p-id="876"></path></svg>